<?xml version="1.0" encoding="utf-8"?>
<!-- Generator: Adobe Illustrator 23.0.1, SVG Export Plug-In . SVG Version: 6.00 Build 0)  -->
<svg version="1.1" id="Warstwa_1" xmlns="http://www.w3.org/2000/svg" xmlns:xlink="http://www.w3.org/1999/xlink" x="0px" y="0px"
	 viewBox="0 0 64 57" style="enable-background:new 0 0 64 57;" xml:space="preserve">
<style type="text/css">
	.st0{fill-rule:evenodd;clip-rule:evenodd;fill:#FFBA00;}
	.st1{fill-rule:evenodd;clip-rule:evenodd;fill:#0058AA;}
</style>
<path class="st0" d="M60.9,26h-4.7c-1.3,0-2.3,1.1-2.3,2.4s1,2.3,2.3,2.4h4.7c1.3,0,2.3-1.1,2.3-2.4S62.2,26.1,60.9,26L60.9,26z
	 M51.7,15l3.3-3.3c0.9-0.9,0.8-2.4-0.1-3.3c-0.9-0.9-2.3-0.9-3.3-0.1l-3.3,3.3c-0.9,0.9-0.8,2.4,0.1,3.3
	C49.3,15.9,50.8,15.9,51.7,15L51.7,15z M18.4,15c0.6,0.6,1.5,0.9,2.3,0.6c0.8-0.2,1.5-0.9,1.7-1.7s0-1.7-0.6-2.3l-3.3-3.3
	c-0.9-0.9-2.4-0.9-3.3,0c-0.9,0.9-0.9,2.4,0,3.3L18.4,15z M35.1,9.5c1.3,0,2.4-1.1,2.4-2.4V2.4c0-0.8-0.4-1.6-1.2-2
	c-0.7-0.4-1.6-0.4-2.4,0c-0.7,0.4-1.2,1.2-1.2,2v4.7c0,0.6,0.2,1.2,0.7,1.7S34.4,9.5,35.1,9.5z M35.1,18.9c2.8,0,5.5,1.3,7.3,3.4
	c1.8,2.2,2.5,5.1,2,7.8c1.5,0.8,2.8,2,3.9,3.3c2.5-6.6-0.1-14-6.2-17.4S28.3,14.1,24,19.7c1.6,0.5,3.1,1.1,4.5,2
	C30.2,19.9,32.6,18.9,35.1,18.9z"/>
<path class="st1" d="M18.9,57c-9.2,0-17-6.6-18.6-15.7s3.6-18,12.3-21.1s18.2,0.6,22.7,8.6c5.2-0.9,10.6,1.2,13.7,5.5
	s3.7,10,1.3,14.8S43,57,37.7,57H18.9L18.9,57z M37.7,52.3c4,0,7.6-2.5,8.9-6.4s0.1-8.1-3.1-10.6s-7.6-2.7-10.9-0.5
	C30.9,27.6,24,22.9,16.7,24C9.4,25.2,4.2,31.8,4.8,39.2s6.7,13.1,14.1,13.1C18.9,52.3,37.7,52.3,37.7,52.3z"/>
</svg>
